<svg xmlns="http://www.w3.org/2000/svg" xmlns:xlink="http://www.w3.org/1999/xlink" width="500" zoomAndPan="magnify" viewBox="0 0 375 374.999991" height="500" preserveAspectRatio="xMidYMid meet" version="1.0"><defs><clipPath id="92e53ec592"><path d="M 133.335938 295 L 233.332031 295 L 233.332031 323.9375 L 133.335938 323.9375 Z M 133.335938 295 " clip-rule="nonzero"/></clipPath></defs><path fill="#ffffff" d="M 183.445312 69.652344 C 167.089844 69.652344 153.019531 79.253906 146.300781 93.082031 L 220.460938 93.082031 C 213.742188 79.253906 199.671875 69.652344 183.445312 69.652344 " fill-opacity="1" fill-rule="nonzero"/><path fill="#ffffff" d="M 336.960938 121.890625 L 336.960938 155.695312 L 346.21875 155.695312 L 346.21875 121.890625 C 344.695312 122.40625 343.175781 122.660156 341.527344 122.660156 C 339.878906 122.660156 338.359375 122.40625 336.960938 121.890625 " fill-opacity="1" fill-rule="nonzero"/><path fill="#ffffff" d="M 240.996094 177.71875 C 250.25 177.71875 257.605469 185.144531 257.605469 194.363281 C 257.605469 203.710938 250.25 211.136719 240.996094 211.136719 C 231.871094 211.136719 224.515625 203.710938 224.515625 194.363281 C 224.515625 185.144531 231.871094 177.71875 240.996094 177.71875 Z M 208.925781 194.363281 C 208.925781 212.417969 223.246094 226.882812 240.996094 226.882812 C 258.871094 226.882812 273.195312 212.417969 273.195312 194.363281 C 273.195312 176.4375 258.871094 161.96875 240.996094 161.96875 C 223.246094 161.96875 208.925781 176.4375 208.925781 194.363281 " fill-opacity="1" fill-rule="nonzero"/><path fill="#ffffff" d="M 234.910156 81.945312 L 262.167969 81.945312 C 259.761719 105.5 250.25 126.503906 239.097656 146.859375 C 256.714844 135.722656 280.550781 119.203125 296.902344 81.945312 L 334.425781 81.945312 C 356.738281 81.945312 374.992188 63.507812 374.992188 40.972656 C 374.992188 18.4375 356.738281 -0.00390625 334.425781 -0.00390625 L 234.910156 -0.00390625 C 212.601562 -0.00390625 194.34375 18.4375 194.34375 40.972656 C 194.34375 63.507812 212.601562 81.945312 234.910156 81.945312 " fill-opacity="1" fill-rule="nonzero"/><path fill="#ffffff" d="M 356.359375 103.835938 C 356.359375 95.644531 349.640625 88.984375 341.527344 88.984375 C 333.414062 88.984375 326.820312 95.644531 326.820312 103.835938 C 326.820312 112.160156 333.414062 118.816406 341.527344 118.816406 C 349.640625 118.816406 356.359375 112.160156 356.359375 103.835938 " fill-opacity="1" fill-rule="nonzero"/><path fill="#ffffff" d="M 30.8125 159.535156 L 14.585938 159.535156 C 6.46875 159.535156 0.0078125 166.191406 0.0078125 174.261719 L 0.0078125 214.59375 C 0.0078125 222.660156 6.46875 229.320312 14.585938 229.320312 L 30.8125 229.320312 C 26.628906 218.433594 24.347656 206.652344 24.347656 194.363281 C 24.347656 182.199219 26.628906 170.417969 30.8125 159.535156 " fill-opacity="1" fill-rule="nonzero"/><path fill="#ffffff" d="M 25.234375 118.816406 C 33.347656 118.816406 39.941406 112.160156 39.941406 103.835938 C 39.941406 95.644531 33.347656 88.984375 25.234375 88.984375 C 17.121094 88.984375 10.53125 95.644531 10.53125 103.835938 C 10.53125 112.160156 17.121094 118.816406 25.234375 118.816406 " fill-opacity="1" fill-rule="nonzero"/><path fill="#ffffff" d="M 349.894531 159.535156 L 335.949219 159.535156 C 340.132812 170.417969 342.414062 182.199219 342.414062 194.363281 C 342.414062 206.652344 340.132812 218.433594 335.949219 229.320312 L 349.894531 229.320312 C 357.882812 229.320312 364.46875 222.660156 364.46875 214.59375 L 364.46875 174.261719 C 364.46875 166.191406 357.882812 159.535156 349.894531 159.535156 " fill-opacity="1" fill-rule="nonzero"/><g clip-path="url(#92e53ec592)"><path fill="#ffffff" d="M 133.621094 323.9375 L 233.136719 323.9375 L 233.136719 295.773438 L 133.621094 295.773438 L 133.621094 323.9375 " fill-opacity="1" fill-rule="nonzero"/></g><path fill="#ffffff" d="M 286.886719 108.191406 C 280.675781 117.28125 273.578125 125.09375 265.335938 132.390625 C 290.058594 141.867188 307.804688 166.191406 307.804688 194.363281 C 307.804688 230.980469 278.269531 260.816406 242.011719 260.816406 L 124.75 260.816406 C 88.492188 260.816406 58.953125 230.980469 58.953125 194.363281 C 58.953125 157.871094 88.492188 128.035156 124.75 128.035156 L 242.011719 128.035156 C 242.898438 128.035156 243.660156 128.035156 244.421875 128.035156 C 248.980469 118.308594 252.914062 108.320312 255.449219 97.824219 C 251.136719 97.179688 246.578125 96.925781 242.011719 96.925781 L 124.75 96.925781 C 71.632812 96.925781 28.148438 140.714844 28.148438 194.363281 C 28.148438 248.007812 71.632812 291.929688 124.75 291.929688 L 242.011719 291.929688 C 295.125 291.929688 338.613281 248.007812 338.613281 194.363281 C 338.613281 157.105469 317.566406 124.582031 286.886719 108.191406 " fill-opacity="1" fill-rule="nonzero"/><path fill="#ffffff" d="M 20.667969 121.890625 L 20.667969 155.695312 L 29.796875 155.695312 L 29.796875 121.890625 C 28.402344 122.40625 26.878906 122.660156 25.234375 122.660156 C 23.585938 122.660156 22.0625 122.40625 20.667969 121.890625 " fill-opacity="1" fill-rule="nonzero"/><path fill="#ffffff" d="M 142.246094 194.363281 C 142.246094 203.710938 134.890625 211.136719 125.765625 211.136719 C 116.507812 211.136719 109.15625 203.710938 109.15625 194.363281 C 109.15625 185.144531 116.507812 177.71875 125.765625 177.71875 C 134.890625 177.71875 142.246094 185.144531 142.246094 194.363281 Z M 93.5625 194.363281 C 93.5625 212.417969 107.886719 226.882812 125.765625 226.882812 C 143.511719 226.882812 157.964844 212.417969 157.964844 194.363281 C 157.964844 176.4375 143.511719 161.96875 125.765625 161.96875 C 107.886719 161.96875 93.5625 176.4375 93.5625 194.363281 " fill-opacity="1" fill-rule="nonzero"/><path fill="#ffffff" d="M 0 348.617188 L 3 348.617188 L 3 351.617188 L 0 351.617188 M 6 348.617188 L 9 348.617188 L 9 351.617188 L 6 351.617188 M 12 348.617188 L 15 348.617188 L 15 351.617188 L 12 351.617188 M 18 348.617188 L 21 348.617188 L 21 351.617188 L 18 351.617188 M 24 348.617188 L 27 348.617188 L 27 351.617188 L 24 351.617188 M 30 348.617188 L 33 348.617188 L 33 351.617188 L 30 351.617188 M 36 348.617188 L 39 348.617188 L 39 351.617188 L 36 351.617188 M 42 348.617188 L 45 348.617188 L 45 351.617188 L 42 351.617188 M 48 348.617188 L 51 348.617188 L 51 351.617188 L 48 351.617188 M 54 348.617188 L 57 348.617188 L 57 351.617188 L 54 351.617188 M 60 348.617188 L 63 348.617188 L 63 351.617188 L 60 351.617188 M 66 348.617188 L 69 348.617188 L 69 351.617188 L 66 351.617188 M 72 348.617188 L 75 348.617188 L 75 351.617188 L 72 351.617188 M 78 348.617188 L 81 348.617188 L 81 351.617188 L 78 351.617188 M 84 348.617188 L 87 348.617188 L 87 351.617188 L 84 351.617188 M 90 348.617188 L 93 348.617188 L 93 351.617188 L 90 351.617188 M 96 348.617188 L 99 348.617188 L 99 351.617188 L 96 351.617188 M 102 348.617188 L 105 348.617188 L 105 351.617188 L 102 351.617188 M 108 348.617188 L 111 348.617188 L 111 351.617188 L 108 351.617188 M 114 348.617188 L 117 348.617188 L 117 351.617188 L 114 351.617188 M 120 348.617188 L 123 348.617188 L 123 351.617188 L 120 351.617188 M 126 348.617188 L 129 348.617188 L 129 351.617188 L 126 351.617188 M 132 348.617188 L 135 348.617188 L 135 351.617188 L 132 351.617188 M 138 348.617188 L 141 348.617188 L 141 351.617188 L 138 351.617188 M 144 348.617188 L 147 348.617188 L 147 351.617188 L 144 351.617188 M 150 348.617188 L 153 348.617188 L 153 351.617188 L 150 351.617188 M 156 348.617188 L 159 348.617188 L 159 351.617188 L 156 351.617188 M 162 348.617188 L 165 348.617188 L 165 351.617188 L 162 351.617188 M 168 348.617188 L 171 348.617188 L 171 351.617188 L 168 351.617188 M 174 348.617188 L 177 348.617188 L 177 351.617188 L 174 351.617188 M 180 348.617188 L 183 348.617188 L 183 351.617188 L 180 351.617188 M 186 348.617188 L 189 348.617188 L 189 351.617188 L 186 351.617188 M 192 348.617188 L 195 348.617188 L 195 351.617188 L 192 351.617188 M 198 348.617188 L 201 348.617188 L 201 351.617188 L 198 351.617188 M 204 348.617188 L 207 348.617188 L 207 351.617188 L 204 351.617188 M 210 348.617188 L 213 348.617188 L 213 351.617188 L 210 351.617188 M 216 348.617188 L 219 348.617188 L 219 351.617188 L 216 351.617188 M 222 348.617188 L 225 348.617188 L 225 351.617188 L 222 351.617188 M 228 348.617188 L 231 348.617188 L 231 351.617188 L 228 351.617188 M 234 348.617188 L 237 348.617188 L 237 351.617188 L 234 351.617188 M 240 348.617188 L 243 348.617188 L 243 351.617188 L 240 351.617188 M 246 348.617188 L 249 348.617188 L 249 351.617188 L 246 351.617188 M 252 348.617188 L 255 348.617188 L 255 351.617188 L 252 351.617188 M 258 348.617188 L 261 348.617188 L 261 351.617188 L 258 351.617188 M 264 348.617188 L 267 348.617188 L 267 351.617188 L 264 351.617188 M 270 348.617188 L 273 348.617188 L 273 351.617188 L 270 351.617188 M 276 348.617188 L 279 348.617188 L 279 351.617188 L 276 351.617188 M 282 348.617188 L 285 348.617188 L 285 351.617188 L 282 351.617188 M 288 348.617188 L 291 348.617188 L 291 351.617188 L 288 351.617188 M 294 348.617188 L 297 348.617188 L 297 351.617188 L 294 351.617188 M 300 348.617188 L 303 348.617188 L 303 351.617188 L 300 351.617188 M 306 348.617188 L 309 348.617188 L 309 351.617188 L 306 351.617188 M 312 348.617188 L 315 348.617188 L 315 351.617188 L 312 351.617188 M 318 348.617188 L 321 348.617188 L 321 351.617188 L 318 351.617188 M 324 348.617188 L 327 348.617188 L 327 351.617188 L 324 351.617188 M 330 348.617188 L 333 348.617188 L 333 351.617188 L 330 351.617188 M 336 348.617188 L 339 348.617188 L 339 351.617188 L 336 351.617188 M 342 348.617188 L 345 348.617188 L 345 351.617188 L 342 351.617188 M 348 348.617188 L 351 348.617188 L 351 351.617188 L 348 351.617188 M 354 348.617188 L 357 348.617188 L 357 351.617188 L 354 351.617188 M 360 348.617188 L 363 348.617188 L 363 351.617188 L 360 351.617188 M 366 348.617188 L 369 348.617188 L 369 351.617188 L 366 351.617188 M 372 348.617188 L 375 348.617188 L 375 351.617188 L 372 351.617188 " fill-opacity="1" fill-rule="nonzero"/></svg>